<svg xmlns="http://www.w3.org/2000/svg" width="1200" height="1200" viewBox="0 0 1200 1200">
  <rect width="1200" height="1200" rx="220" fill="#0e1525"/>
  <g transform="translate(250 250) scale(29.166666666666668)"><rect x="4" y="4" width="6" height="4" rx="1.2" fill="#e7edf5" opacity="0.95"/><rect x="11" y="4" width="4" height="4" rx="1.2" fill="#e7edf5" opacity="0.95"/><rect x="16" y="4" width="4" height="4" rx="1.2" fill="#e7edf5" opacity="0.95"/><path d="M16.9 5.4 L19.1 5.4 L18 6.9 Z" fill="#ff5a1f"/><rect x="4" y="9" width="6" height="3" rx="0.9" fill="#e7edf5" opacity="0.32"/><rect x="11" y="9" width="4" height="3" rx="0.9" fill="#e7edf5" opacity="0.32"/><rect x="16" y="9" width="4" height="3" rx="0.9" fill="#ff5a1f" opacity="1"/><rect x="4" y="13" width="6" height="3" rx="0.9" fill="#e7edf5" opacity="0.32"/><rect x="11" y="13" width="4" height="3" rx="0.9" fill="#e7edf5" opacity="0.32"/><rect x="16" y="13" width="4" height="3" rx="0.9" fill="#ff5a1f" opacity="1"/><rect x="4" y="17" width="6" height="3" rx="0.9" fill="#e7edf5" opacity="0.32"/><rect x="11" y="17" width="4" height="3" rx="0.9" fill="#e7edf5" opacity="0.32"/><rect x="16" y="17" width="4" height="3" rx="0.9" fill="#ff5a1f" opacity="1"/></g>
</svg>